<?xml version="1.0" encoding="UTF-8" standalone="no"?>
<!DOCTYPE svg PUBLIC "-//W3C//DTD SVG 1.1//EN" "http://www.w3.org/Graphics/SVG/1.1/DTD/svg11.dtd">
<!-- Created with Vectornator (http://vectornator.io/) -->
<svg height="100%" stroke-miterlimit="10" style="fill-rule:nonzero;clip-rule:evenodd;stroke-linecap:round;stroke-linejoin:round;" version="1.1" viewBox="0 0 1080 1080" width="100%" xml:space="preserve" xmlns="http://www.w3.org/2000/svg" xmlns:vectornator="http://vectornator.io" xmlns:xlink="http://www.w3.org/1999/xlink">
<defs/>
<g id="Layer-1" vectornator:layerName="Layer 1">
<path d="M157.657 532.239C157.657 332.587 319.811 170.736 519.839 170.736C719.867 170.736 882.021 332.587 882.021 532.239C882.021 731.892 719.867 893.743 519.839 893.743C425.575 893.743 339.722 857.799 275.286 798.893C202.99 732.802 157.657 637.805 157.657 532.239Z" fill="#3564de" fill-rule="nonzero" opacity="1" stroke="#000000" stroke-linecap="round" stroke-linejoin="round" stroke-width="13.4096"/>
<path d="M873.565 539.383C873.565 707.885 736.711 844.482 567.893 844.482C399.075 844.482 262.22 707.885 262.22 539.383C262.22 370.881 399.075 234.284 567.893 234.284C647.449 234.284 719.907 264.619 774.289 314.334C835.304 370.114 873.565 450.289 873.565 539.383Z" fill="#5b7ed7" fill-rule="nonzero" opacity="1" stroke="#000000" stroke-linecap="round" stroke-linejoin="round" stroke-opacity="0" stroke-width="13.4096"/>
</g>
<g id="Layer-4" vectornator:layerName="Layer 4">
<path d="M286 704.685C317.721 644.551 425.705 616.674 425.705 616.674L591.74 615.736C591.74 615.736 712.872 628.794 748.975 689.163C765.35 716.543 771.471 751.435 774.92 783.82C775.563 789.861 767.982 796.529 764.002 799.902C743.766 817.057 737.807 822.11 715.484 836.403C693.161 850.697 674.71 857.075 674.71 857.075C674.71 857.075 597.985 892.35 519.802 892.249C441.619 892.147 361.979 856.669 361.979 856.669C361.979 856.669 329.234 843.326 304.458 825.48C286.461 812.516 270.113 796.325 269.471 795.521C265.151 790.11 262.551 787.842 262.877 785.285C266.259 758.699 273.123 729.097 286 704.685Z" fill="#ffffff" fill-rule="nonzero" opacity="1" stroke="#000000" stroke-linecap="round" stroke-linejoin="round" stroke-width="8.1939"/>
<path d="M429.077 613.575L457.062 611.54L517.49 885.3L408.156 738.43L452.625 697.343L390.608 690.513L429.077 613.575Z" fill="#ffffff" fill-rule="nonzero" opacity="1" stroke="#000000" stroke-linecap="round" stroke-linejoin="round" stroke-width="8.1939"/>
<path d="M599.316 612.265L572.023 610.23L518.745 889.674L619.72 737.12L576.35 696.033L636.834 689.203L599.316 612.265Z" fill="#ffffff" fill-rule="nonzero" opacity="1" stroke="#000000" stroke-linecap="round" stroke-linejoin="round" stroke-width="8.1939"/>
<path d="M454.692 614.175L569.449 609.802L519.401 890.074L454.692 614.175Z" fill="#000000" fill-rule="nonzero" opacity="1" stroke="#000000" stroke-linecap="round" stroke-linejoin="round" stroke-width="8.1939"/>
</g>
<g id="Layer-2" vectornator:layerName="Layer 2">
<path d="M648.781 488.48C648.781 488.48 669.515 483.174 674.486 497.497C679.363 511.553 672.375 536.026 659.305 548.35C647.876 559.127 630.413 558.735 630.413 558.735L648.781 488.48Z" fill="#ffddad" fill-rule="nonzero" opacity="1" stroke="#000000" stroke-linecap="round" stroke-linejoin="round" stroke-width="7.10059"/>
<path d="M379.088 490.161C379.088 490.161 358.194 484.855 353.186 499.178C348.271 513.234 355.313 537.707 368.484 550.031C380 560.808 397.598 560.416 397.598 560.416L379.088 490.161Z" fill="#ffddad" fill-rule="nonzero" opacity="1" stroke="#000000" stroke-linecap="round" stroke-linejoin="round" stroke-width="7.10059"/>
<path d="M378.755 478.86C378.755 381.658 438.972 302.86 513.255 302.86C587.537 302.86 647.755 381.658 647.755 478.86C647.755 576.062 571.59 654.082 513.255 654.86C462.578 655.535 378.755 576.062 378.755 478.86Z" fill="#ffddad" fill-rule="nonzero" opacity="1" stroke="#000000" stroke-linecap="butt" stroke-linejoin="round" stroke-width="7.10059"/>
<path d="M379.621 474.097C379.621 376.895 439.839 298.097 514.121 298.097C532.988 298.097 596.22 301.471 567.244 312.358C538.269 323.244 436.541 385.334 440.136 497.478C442.366 567.057 470.243 601.645 485.818 620.527C489.495 624.986 500.513 638.2 508.769 645.204C514.552 650.109 520.941 650.006 514.121 650.097C463.444 650.773 379.621 571.299 379.621 474.097Z" fill="#f0cd9b" fill-rule="nonzero" opacity="1" stroke="#000000" stroke-linecap="butt" stroke-linejoin="round" stroke-opacity="0" stroke-width="7.10059"/>
<g opacity="1">
<path d="M382.373 472.469C382.373 472.469 412.26 471.533 441.94 475.636C471.621 479.739 501.095 488.881 501.095 488.881C501.095 488.881 497.894 519.854 487.801 534.186C477.708 548.518 470.099 551.19 445.125 549.505C420.151 547.82 411.763 551.817 398.527 533.345C385.29 514.872 382.373 472.469 382.373 472.469Z" fill="#cef3f2" fill-opacity="0.661286" fill-rule="nonzero" opacity="1" stroke="#000000" stroke-linecap="butt" stroke-linejoin="round" stroke-width="13.4096"/>
<path d="M644.164 472.275C644.164 472.275 607.333 470.028 576.543 474.131C545.752 478.234 521.003 488.687 521.003 488.687C521.003 488.687 524.324 519.66 534.794 533.992C545.265 548.324 553.158 550.996 579.066 549.311C604.974 547.626 613.675 551.623 627.407 533.151C641.138 514.678 644.164 472.275 644.164 472.275Z" fill="#cef3f2" fill-opacity="0.661286" fill-rule="nonzero" opacity="1" stroke="#000000" stroke-linecap="butt" stroke-linejoin="round" stroke-width="13.4096"/>
<path d="M503.661 490.664L518.217 490.664L518.217 499.171L503.661 499.171L503.661 490.664Z" fill="#cef3f2" fill-opacity="0.661286" fill-rule="nonzero" opacity="1" stroke="#000000" stroke-linecap="butt" stroke-linejoin="round" stroke-width="13.4096"/>
</g>
<path d="M485.843 594.097C485.513 593.932 484.488 593.648 484.854 593.602C486.489 593.398 488.15 593.602 489.797 593.602C491.94 593.602 494.082 593.602 496.224 593.602C498.861 593.602 501.497 593.602 504.134 593.602C512.498 593.602 520.555 593.59 528.851 592.614C538.222 591.511 543.736 592.011 548.625 582.232" fill="none" opacity="1" stroke="#000000" stroke-linecap="round" stroke-linejoin="round" stroke-width="13.4096"/>
</g>
<g id="Layer-3" vectornator:layerName="Layer 3">
<path d="M427.509 326.653C441.346 298.052 449.362 297.153 505.101 291.345C560.839 285.536 616.099 300.4 647.495 343.461C678.892 386.522 649.967 470.015 649.967 470.015C649.967 470.015 523.166 441.837 469.529 403.772C456.684 394.656 446.789 387.124 439.356 380.547C435.636 377.256 430.068 409.108 416.613 433.552C404.195 456.112 375.862 479.333 375.862 479.333C375.862 479.333 361.367 395.673 373.494 360.059C382.516 333.559 424.38 333.122 427.509 326.653Z" fill="#333128" fill-rule="nonzero" opacity="1" stroke="#000000" stroke-linecap="butt" stroke-linejoin="round" stroke-width="7.10059"/>
</g>
<g id="Layer-5" vectornator:layerName="Layer 5"/>
<g id="Layer-6" vectornator:layerName="Layer 6">
<path d="M73.75 822.153C73.75 729.754 148.654 654.85 241.052 654.85C333.451 654.85 408.355 729.754 408.355 822.153C408.355 914.551 333.451 989.455 241.052 989.455C148.654 989.455 73.75 914.551 73.75 822.153Z" fill="#1b900b" fill-rule="nonzero" opacity="1" stroke="#000000" stroke-linecap="round" stroke-linejoin="round" stroke-width="13.4096"/>
<path d="M142.919 829.236C142.919 757.962 200.698 700.183 271.972 700.183C343.247 700.183 401.026 757.962 401.026 829.236C401.026 900.51 343.247 958.289 271.972 958.289C200.698 958.289 142.919 900.51 142.919 829.236Z" fill="#1ea10d" fill-rule="nonzero" opacity="1" stroke="#000000" stroke-linecap="round" stroke-linejoin="round" stroke-opacity="0" stroke-width="13.4096"/>
<path d="M613.359 822.153C613.359 729.754 688.263 654.85 780.661 654.85C873.06 654.85 947.964 729.754 947.964 822.153C947.964 914.551 873.06 989.455 780.661 989.455C688.263 989.455 613.359 914.551 613.359 822.153Z" fill="#d21f1f" fill-rule="nonzero" opacity="1" stroke="#000000" stroke-linecap="round" stroke-linejoin="round" stroke-width="13.4096"/>
<path d="M686.147 823.693C686.147 752.419 743.926 694.64 815.201 694.64C886.475 694.64 944.254 752.419 944.254 823.693C944.254 894.967 886.475 952.746 815.201 952.746C743.926 952.746 686.147 894.967 686.147 823.693Z" fill="#de3535" fill-rule="nonzero" opacity="1" stroke="#000000" stroke-linecap="round" stroke-linejoin="round" stroke-opacity="0" stroke-width="13.4096"/>
</g>
<g id="Layer-7" vectornator:layerName="Layer 7">
<path d="M316.644 845.756L316.336 925.976L316.336 934.022L257.779 934.022L257.779 845.549L299.31 845.695L316.644 845.756Z" fill="#f4006f" fill-rule="nonzero" opacity="1" stroke="#ffffff" stroke-linecap="round" stroke-linejoin="round" stroke-width="2.87878"/>
<path d="M259.772 766.153L318.328 766.153L326.002 766.288L326.002 776.892L318.328 780.38L318.328 927.122L318.328 935.168L259.772 935.168L259.772 778.985L252.939 777.27L252.939 766.263L259.772 766.153Z" fill="#1ea10d" fill-opacity="0.0401038" fill-rule="nonzero" opacity="1" stroke="#ffffff" stroke-linecap="round" stroke-linejoin="round" stroke-width="8.1939"/>
<path d="M186.777 857.208L187.306 825.424L233.261 825.418L233.525 855.087C233.525 855.087 259.849 886.479 268.201 906.245C276.554 926.012 266.934 934.154 266.934 934.154L153.898 934.154C153.898 934.154 145.148 927.631 153.368 908.395C156.945 900.024 163.735 889.245 170.265 879.74C178.741 867.402 186.777 857.208 186.777 857.208Z" fill="#e3f501" fill-rule="nonzero" opacity="1" stroke="#ffffff" stroke-linecap="round" stroke-linejoin="round" stroke-width="2.87878"/>
<path d="M186.834 858.148L187.559 801.409L177.656 800.107L177.875 791.801L188.118 791.329L233.725 791.329L243.413 791.157L243.517 798.499L234.101 802.06L233.581 856.027C233.581 856.027 259.906 887.418 268.258 907.185C276.61 926.951 266.991 935.093 266.991 935.093L153.955 935.093C153.955 935.093 145.204 928.57 153.424 909.334C161.644 890.098 186.834 858.148 186.834 858.148Z" fill="#1ea10d" fill-opacity="0.0401038" fill-rule="nonzero" opacity="1" stroke="#ffffff" stroke-linecap="round" stroke-linejoin="round" stroke-width="8.1939"/>
<path d="M185.93 755.043C185.93 749.582 190.357 745.155 195.818 745.155C201.279 745.155 205.706 749.582 205.706 755.043C205.706 760.504 201.279 764.931 195.818 764.931C190.357 764.931 185.93 760.504 185.93 755.043Z" fill="#ffffff" fill-opacity="0" fill-rule="nonzero" opacity="1" stroke="#ffffff" stroke-linecap="round" stroke-linejoin="round" stroke-width="3.72435"/>
<path d="M217.368 713.971C217.368 703.47 225.995 694.956 236.636 694.956C247.278 694.956 255.905 703.47 255.905 713.971C255.905 724.473 247.278 732.986 236.636 732.986C225.995 732.986 217.368 724.473 217.368 713.971Z" fill="#ffffff" fill-opacity="0" fill-rule="nonzero" opacity="1" stroke="#ffffff" stroke-linecap="round" stroke-linejoin="round" stroke-width="5.90241"/>
<path d="M292.92 740.592C292.92 735.831 296.893 731.972 301.793 731.972C306.694 731.972 310.667 735.831 310.667 740.592C310.667 745.353 306.694 749.212 301.793 749.212C296.893 749.212 292.92 745.353 292.92 740.592Z" fill="#ffffff" fill-opacity="0" fill-rule="nonzero" opacity="1" stroke="#ffffff" stroke-linecap="round" stroke-linejoin="round" stroke-width="3.98591"/>
</g>
<g id="Layer-8" vectornator:layerName="Layer 8">
<path d="M676.213 744.051L858.317 744.051L894.216 744.051L894.216 891.783L676.213 891.783L676.213 744.051Z" fill="#8b8b8b" fill-rule="nonzero" opacity="1" stroke="#ffffff" stroke-linecap="round" stroke-linejoin="round" stroke-width="3.5969"/>
<path d="M681.706 749.544L853.486 749.544L887.35 749.544L887.35 876.695L681.706 876.695L681.706 749.544Z" fill="#303030" fill-rule="nonzero" opacity="1" stroke="#ffffff" stroke-linecap="round" stroke-linejoin="round" stroke-width="1.43297"/>
<path d="M653.59 883.217L761.506 883.217L770.775 889.053L800.299 889.397L810.255 883.217L914.097 883.217L914.097 905.155L653.59 905.155L653.59 883.217Z" fill="#8b8b8b" fill-rule="nonzero" opacity="1" stroke="#ffffff" stroke-linecap="round" stroke-linejoin="round" stroke-width="3.5969"/>
<path d="M729.786 813.968C729.786 800.059 755.675 788.783 787.61 788.783C819.545 788.783 845.434 800.059 845.434 813.968C845.434 827.878 819.545 839.154 787.61 839.154C755.675 839.154 729.786 827.878 729.786 813.968Z" fill="#ffffff" fill-opacity="0" fill-rule="nonzero" opacity="1" stroke="#ffffff" stroke-linecap="round" stroke-linejoin="round" stroke-width="1.43297"/>
<path d="M744.935 777.325C753.75 766.564 780.922 774.248 805.626 794.485C830.331 814.723 843.212 839.852 834.397 850.612C825.582 861.372 798.41 853.689 773.706 833.451C749.001 813.213 736.12 788.085 744.935 777.325Z" fill="#ffffff" fill-opacity="0" fill-rule="nonzero" opacity="1" stroke="#ffffff" stroke-linecap="round" stroke-linejoin="round" stroke-width="1.43297"/>
<path d="M829.376 772.427C839.369 782.103 829.46 808.545 807.245 831.488C785.031 854.43 758.921 865.185 748.928 855.509C738.935 845.834 748.844 819.391 771.059 796.449C793.274 773.506 819.383 762.751 829.376 772.427Z" fill="#ffffff" fill-opacity="0" fill-rule="nonzero" opacity="1" stroke="#ffffff" stroke-linecap="round" stroke-linejoin="round" stroke-width="1.43297"/>
<path d="M790.281 754.602C804.19 754.627 815.421 780.535 815.366 812.47C815.31 844.405 803.989 870.274 790.079 870.25C776.17 870.226 764.939 844.318 764.994 812.382C765.05 780.447 776.371 754.578 790.281 754.602Z" fill="#ffffff" fill-opacity="0" fill-rule="nonzero" opacity="1" stroke="#ffffff" stroke-linecap="round" stroke-linejoin="round" stroke-width="1.43297"/>
<path d="M718.992 816.844C718.992 811.566 723.48 807.286 729.015 807.286C734.55 807.286 739.038 811.566 739.038 816.844C739.038 822.123 734.55 826.402 729.015 826.402C723.48 826.402 718.992 822.123 718.992 816.844Z" fill="#40ed08" fill-rule="nonzero" opacity="1" stroke="#ffffff" stroke-linecap="round" stroke-linejoin="round" stroke-width="1.43297"/>
<path d="M782.84 867.029C782.84 862.834 786.5 859.434 791.015 859.434C795.53 859.434 799.19 862.834 799.19 867.029C799.19 871.224 795.53 874.625 791.015 874.625C786.5 874.625 782.84 871.224 782.84 867.029Z" fill="#08a0ed" fill-rule="nonzero" opacity="1" stroke="#ffffff" stroke-linecap="round" stroke-linejoin="round" stroke-width="1.43297"/>
<path d="M818.707 771.05C818.707 765.231 823.194 760.513 828.729 760.513C834.265 760.513 838.752 765.231 838.752 771.05C838.752 776.869 834.265 781.587 828.729 781.587C823.194 781.587 818.707 776.869 818.707 771.05Z" fill="#ed08b5" fill-rule="nonzero" opacity="1" stroke="#ffffff" stroke-linecap="round" stroke-linejoin="round" stroke-width="1.43297"/>
</g>
</svg>
